<svg xmlns="http://www.w3.org/2000/svg" version="1.1" xmlns:xlink="http://www.w3.org/1999/xlink" xmlns:svgjs="http://svgjs.com/svgjs" width="1440" height="560" preserveAspectRatio="none" viewBox="0 0 1440 560"><g mask="url(&quot;#SvgjsMask1006&quot;)" fill="none"><path d="M34.88 419.07L61.34 419.07L61.34 445.53L34.88 445.53z" stroke="#e73635"></path><path d="M199 77.45a20.2 20.2 0 1 0-29.61-27.49z" fill="#037b0b"></path><path d="M987.52 147.56 a2.64 2.64 0 1 0 5.28 0 a2.64 2.64 0 1 0 -5.28 0z" fill="#037b0b"></path><path d="M1266.78 402.64L1311.5 402.64L1311.5 447.36L1266.78 447.36z" stroke="#d3b714"></path><path d="M492.53 545.81 a24.15 24.15 0 1 0 48.3 0 a24.15 24.15 0 1 0 -48.3 0z" fill="#e73635"></path><path d="M1332.07 122.43a9.28 9.28 0 1 0-7.46 16.99z" stroke="#e73635"></path><path d="M1107.35 300.31L1141.4 300.31L1141.4 334.36L1107.35 334.36z" fill="#d3b714"></path><path d="M264.61 122.84L316.05 122.84L316.05 174.28L264.61 174.28z" fill="#037b0b"></path><path d="M281.13 399.64L294.66 399.64L294.66 413.17L281.13 413.17z" fill="#e73635"></path><path d="M689.94 253.1 a18.39 18.39 0 1 0 36.78 0 a18.39 18.39 0 1 0 -36.78 0z" fill="#037b0b"></path><path d="M1.02 245.75L33.1 245.75L33.1 292.81L1.02 292.81z" stroke="#d3b714"></path><path d="M898.23 441.55 a30.42 30.42 0 1 0 60.84 0 a30.42 30.42 0 1 0 -60.84 0z" stroke="#037b0b"></path><path d="M775.92 475.15 a39.94 39.94 0 1 0 79.88 0 a39.94 39.94 0 1 0 -79.88 0z" stroke="#037b0b"></path><path d="M746.92 67.08L782.82 67.08L782.82 84.22L746.92 84.22z" stroke="#037b0b"></path><path d="M1206.92 154.73 a33.96 33.96 0 1 0 67.92 0 a33.96 33.96 0 1 0 -67.92 0z" stroke="#037b0b"></path><path d="M463.32 264.98 a23.91 23.91 0 1 0 47.82 0 a23.91 23.91 0 1 0 -47.82 0z" stroke="#d3b714"></path><path d="M1383.46 303.68L1437.18 303.68L1437.18 357.4L1383.46 357.4z" fill="#e73635"></path><path d="M223.99 333.28L229.26 333.28L229.26 338.55L223.99 338.55z" stroke="#037b0b"></path><path d="M726.84 12.7a6.49 6.49 0 1 0-8.43-9.87z" fill="#d3b714"></path><path d="M344.03 233.03L370.54 233.03L370.54 259.54L344.03 259.54z" fill="#e73635"></path><path d="M877.29 245.16L889.9 245.16L889.9 257.77L877.29 257.77z" stroke="#d3b714"></path><path d="M206.86 172.8 a3.7 3.7 0 1 0 7.4 0 a3.7 3.7 0 1 0 -7.4 0z" fill="#037b0b"></path><path d="M777.77 383.88 a44.19 44.19 0 1 0 88.38 0 a44.19 44.19 0 1 0 -88.38 0z" stroke="#e73635"></path><path d="M209.49 55.19 a33.89 33.89 0 1 0 67.78 0 a33.89 33.89 0 1 0 -67.78 0z" stroke="#037b0b"></path><path d="M118.95 153.16L126.88 153.16L126.88 161.09L118.95 161.09z" stroke="#d3b714"></path><path d="M118.5 422.84L118.54 422.84L118.54 422.88L118.5 422.88z" fill="#e73635"></path><path d="M252.42 161.43L304.38 161.43L304.38 192.63L252.42 192.63z" fill="#d3b714"></path><path d="M920.87 358.96L955.19 358.96L955.19 362.79L920.87 362.79z" stroke="#037b0b"></path><path d="M69.71 407.23 a50.06 50.06 0 1 0 100.12 0 a50.06 50.06 0 1 0 -100.12 0z" stroke="#037b0b"></path><path d="M1399.84 127.12 a30.49 30.49 0 1 0 60.98 0 a30.49 30.49 0 1 0 -60.98 0z" fill="#037b0b"></path><path d="M880.92 95.18a27.72 27.72 0 1 0-55.41-1.77z" stroke="#037b0b"></path><path d="M1371.95 395.25a24.79 24.79 0 1 0-9.03-48.75z" stroke="#d3b714"></path><path d="M482.1 18.72L525.44 18.72L525.44 62.06L482.1 62.06z" stroke="#d3b714"></path></g><defs><mask id="SvgjsMask1006"><rect width="1440" height="560" fill="#ffffff"></rect></mask></defs></svg>